<svg width="241" height="30" viewBox="0 0 241 30" fill="none" xmlns="http://www.w3.org/2000/svg">
<path fill-rule="evenodd" clip-rule="evenodd" d="M46.6497 10.722C45.4 11.4496 44.1509 12.1784 42.9007 12.9048L42.8811 12.8935C38.4545 10.3152 34.6648 8.10853 30.8255 5.87319L24.5485 2.2182C25.8173 1.47907 27.0854 0.738964 28.3545 0C34.4687 3.5684 40.5894 7.12716 46.7082 10.6882L46.6497 10.722Z" fill="white"/>
<path fill-rule="evenodd" clip-rule="evenodd" d="M10.0583 10.722C11.308 11.4496 12.5571 12.1784 13.8073 12.9048L13.8268 12.8935C18.2535 10.3152 22.0431 8.10854 25.8824 5.8732L32.1597 2.21821C30.8907 1.47908 29.6233 0.738964 28.3545 0C22.24 3.5684 16.1186 7.12717 10 10.6882L10.0583 10.722Z" fill="white"/>
<path fill-rule="evenodd" clip-rule="evenodd" d="M46.6499 10.6542C45.4002 9.9266 44.1511 9.19783 42.9008 8.47136L42.8813 8.4827C36.7707 12.0419 38.0618 11.289 31.9508 14.8471C33.2196 15.5863 34.4877 16.3266 35.7567 17.0653C41.871 13.4969 40.5894 14.249 46.7082 10.6882L46.6499 10.6542Z" fill="white"/>
<path fill-rule="evenodd" clip-rule="evenodd" d="M10.0583 10.6542C11.308 9.92656 12.5571 9.1978 13.8073 8.47132L13.8268 8.48267C18.2535 11.0611 22.0431 13.2676 25.8824 15.503L32.1597 19.1579C30.8907 19.8971 29.6226 20.6372 28.3538 21.3762C22.2393 17.8077 16.1186 14.249 10 10.6882L10.0583 10.6542Z" fill="white"/>
<path fill-rule="evenodd" clip-rule="evenodd" d="M39.4256 14.8371C38.1758 15.5647 36.9267 16.2935 35.6765 17.0199L35.657 17.0086C31.2304 14.4301 35.4474 16.8867 31.6079 14.6511L25.3308 10.9962C26.5996 10.2572 27.8679 9.51684 29.1367 8.77787C35.2512 12.3464 33.3652 11.2421 39.4839 14.8031L39.4256 14.8371Z" fill="white"/>
<path fill-rule="evenodd" clip-rule="evenodd" d="M32.2241 27.8115C30.9743 28.5391 29.7253 29.2679 28.475 29.9941L28.4553 29.9828C24.0287 27.4046 26.4094 28.7916 22.5699 26.556L16.2929 22.901C17.5617 22.162 18.83 21.4217 20.0988 20.6827C26.2133 24.2514 26.1637 24.2165 32.2824 27.7776L32.2241 27.8115Z" fill="white"/>
<path fill-rule="evenodd" clip-rule="evenodd" d="M24.6953 27.8171C25.945 28.5448 27.1942 29.2735 28.4443 30L28.4638 29.9887C32.8905 27.4102 30.51 28.7972 34.3492 26.5619L40.6263 22.9069C39.3575 22.1677 38.0894 21.4276 36.8204 20.6886C30.7061 24.2571 30.7556 24.2224 24.637 27.7834L24.6953 27.8171Z" fill="white"/>
<path fill-rule="evenodd" clip-rule="evenodd" d="M20.0394 25.0848C18.7899 24.3569 17.5396 23.6303 16.2908 22.9013V22.8783C16.2913 15.7609 16.2904 22.3658 16.2897 15.2482C17.5587 15.9871 18.8283 16.7249 20.0971 17.4639C20.0906 24.5897 20.0957 17.9933 20.0977 25.1188L20.0394 25.0848Z" fill="white"/>
<path fill-rule="evenodd" clip-rule="evenodd" d="M36.878 25.0904C38.1275 24.3625 39.3774 23.6361 40.6263 22.9069L40.6266 22.8839C40.6261 15.7665 40.6273 22.3714 40.6277 15.2538C39.3587 15.9927 38.0892 16.7305 36.8204 17.4695C36.8269 24.595 36.8218 17.9989 36.8197 25.1244L36.878 25.0904Z" fill="white"/>
<path fill-rule="evenodd" clip-rule="evenodd" d="M11.8061 12.6245L12.7483 13.173C12.7506 20.299 12.755 9.43754 12.7502 16.5633L11.7483 15.9801C11.755 8.85446 11.7499 19.716 11.7478 12.5904L11.8061 12.6245Z" fill="white"/>
<path fill-rule="evenodd" clip-rule="evenodd" d="M12.6883 17.4087C12.8993 17.9353 13.0827 18.4098 13.3043 19.0097L13.3039 17.7874L13.3621 17.8215L14.3043 18.37C14.3066 25.4958 14.311 14.6345 14.3061 21.7603L13.3043 21.177C13.0592 20.6387 12.8685 20.2503 12.691 19.8162C12.6908 19.9795 12.6903 20.0203 12.6899 19.8134L12.691 19.8162L12.6903 20.799L11.6885 20.2157C11.6952 13.0902 11.6899 23.9517 11.6878 16.8262L12.6883 17.4087ZM13.3066 19.0162L13.3075 19.0187C13.3077 18.6094 13.3075 18.4059 13.3066 19.0162Z" fill="white"/>
<path d="M54.9783 10.968V22.6663H52.5263V10.968H54.9783Z" fill="white"/>
<path d="M66.6959 10.968V22.6663H64.5781L59.5326 15.3034H59.4476V22.6663H56.9957V10.968H59.1475L64.1534 18.3251H64.2553V10.968H66.6959Z" fill="white"/>
<path d="M75.0131 14.3324C74.9678 13.8716 74.7734 13.5137 74.4298 13.2585C74.0863 13.0034 73.6201 12.8758 73.0311 12.8758C72.631 12.8758 72.2931 12.9329 72.0175 13.0472C71.7419 13.1576 71.5305 13.3118 71.3833 13.5099C71.2398 13.7079 71.1681 13.9325 71.1681 14.1839C71.1605 14.3933 71.204 14.5761 71.2983 14.7322C71.3965 14.8884 71.5305 15.0235 71.7004 15.1378C71.8703 15.2482 72.0666 15.3453 72.2893 15.4291C72.5121 15.5091 72.7499 15.5776 73.0028 15.6347L74.0448 15.8861C74.5506 16.0003 75.015 16.1526 75.4378 16.343C75.8606 16.5334 76.2268 16.7676 76.5364 17.0456C76.8459 17.3236 77.0857 17.6511 77.2555 18.0281C77.4292 18.4051 77.5179 18.8373 77.5217 19.3247C77.5179 20.0406 77.3367 20.6614 76.9781 21.1869C76.6232 21.7086 76.1098 22.1141 75.4378 22.4035C74.7696 22.6891 73.9636 22.8319 73.0198 22.8319C72.0836 22.8319 71.2681 22.6872 70.5735 22.3978C69.8827 22.1084 69.3428 21.68 68.954 21.1126C68.5689 20.5414 68.3669 19.835 68.348 18.9934H70.7207C70.7472 19.3857 70.8585 19.7132 71.0548 19.9759C71.2549 20.2349 71.5211 20.431 71.8533 20.5642C72.1893 20.6937 72.5687 20.7585 72.9915 20.7585C73.4068 20.7585 73.7673 20.6975 74.0731 20.5757C74.3826 20.4538 74.6224 20.2844 74.7922 20.0673C74.9621 19.8502 75.0471 19.6008 75.0471 19.319C75.0471 19.0563 74.9697 18.8354 74.8149 18.6564C74.6639 18.4774 74.4412 18.3251 74.1467 18.1995C73.856 18.0738 73.4993 17.9595 73.0764 17.8567L71.8136 17.5369C70.8359 17.2969 70.0639 16.9219 69.4976 16.4116C68.9313 15.9013 68.6501 15.214 68.6538 14.3495C68.6501 13.6412 68.8369 13.0224 69.2144 12.4931C69.5957 11.9638 70.1186 11.5506 70.783 11.2536C71.4475 10.9566 72.2025 10.808 73.0481 10.808C73.9089 10.808 74.6601 10.9566 75.3019 11.2536C75.9474 11.5506 76.4495 11.9638 76.8082 12.4931C77.1668 13.0224 77.3518 13.6355 77.3631 14.3324H75.0131Z" fill="white"/>
<path d="M78.7293 13.0072V10.968H88.254V13.0072H84.7035V22.6663H82.2798V13.0072H78.7293Z" fill="white"/>
<path d="M90.4044 22.6663H87.7769L91.7805 10.968H94.9403L98.9382 22.6663H96.3107L93.4057 13.6412H93.3151L90.4044 22.6663ZM90.2402 18.0681H96.4466V19.9988H90.2402V18.0681Z" fill="white"/>
<path d="M98.4753 13.0072V10.968H108V13.0072H104.449V22.6663H102.026V13.0072H98.4753Z" fill="white"/>
</svg>
