<svg width="1200" height="680" viewBox="0 0 1200 680" fill="none" xmlns="http://www.w3.org/2000/svg">
<g clip-path="url(#clip0_265_6917)">
<mask id="mask0_265_6917" style="mask-type:alpha" maskUnits="userSpaceOnUse" x="0" y="24" width="1200" height="656">
<path d="M0 124C0 68.7715 44.7715 24 100 24H1100C1155.23 24 1200 68.7715 1200 124V580C1200 635.229 1155.23 680 1100 680H100C44.7715 680 0 635.229 0 580V124Z" fill="url(#paint0_radial_265_6917)"/>
</mask>
<g mask="url(#mask0_265_6917)">
<rect x="7.5" y="36.5" width="79" height="79" stroke="#00E6FC"/>
<rect x="86.5" y="36.5" width="79" height="79" stroke="#00E6FC"/>
<rect x="165.5" y="36.5" width="79" height="79" stroke="#00E6FC"/>
<rect x="244.5" y="36.5" width="79" height="79" stroke="#00E6FC"/>
<rect x="323.5" y="36.5" width="79" height="79" fill="#00E6FC" fill-opacity="0.24" stroke="#00E6FC"/>
<rect x="402.5" y="36.5" width="79" height="79" fill="#00E6FC" fill-opacity="0.24" stroke="#00E6FC"/>
<rect x="481.5" y="36.5" width="79" height="79" stroke="#00E6FC"/>
<rect x="560.5" y="36.5" width="79" height="79" stroke="#00E6FC"/>
<rect x="639.5" y="36.5" width="79" height="79" stroke="#00E6FC"/>
<rect x="718.5" y="36.5" width="79" height="79" stroke="#00E6FC"/>
<rect x="797.5" y="36.5" width="79" height="79" fill="#00E6FC" fill-opacity="0.24" stroke="#00E6FC"/>
<rect x="876.5" y="36.5" width="79" height="79" stroke="#00E6FC"/>
<rect x="955.5" y="36.5" width="79" height="79" stroke="#00E6FC"/>
<rect x="1034.5" y="36.5" width="79" height="79" stroke="#00E6FC"/>
<rect x="1113.5" y="36.5" width="79" height="79" stroke="#00E6FC"/>
<rect x="7.5" y="115.5" width="79" height="79" stroke="#00E6FC"/>
<rect x="86.5" y="115.5" width="79" height="79" stroke="#00E6FC"/>
<rect x="165.5" y="115.5" width="79" height="79" stroke="#00E6FC"/>
<rect x="244.5" y="115.5" width="79" height="79" stroke="#00E6FC"/>
<rect x="323.5" y="115.5" width="79" height="79" stroke="#00E6FC"/>
<rect x="402.5" y="115.5" width="79" height="79" stroke="#00E6FC"/>
<rect x="481.5" y="115.5" width="79" height="79" stroke="#00E6FC"/>
<rect x="560.5" y="115.5" width="79" height="79" stroke="#00E6FC"/>
<rect x="639.5" y="115.5" width="79" height="79" stroke="#00E6FC"/>
<rect x="718.5" y="115.5" width="79" height="79" stroke="#00E6FC"/>
<rect x="797.5" y="115.5" width="79" height="79" stroke="#00E6FC"/>
<rect x="876.5" y="115.5" width="79" height="79" stroke="#00E6FC"/>
<rect x="955.5" y="115.5" width="79" height="79" fill="#00E6FC" fill-opacity="0.24" stroke="#00E6FC"/>
<rect x="1034.5" y="115.5" width="79" height="79" stroke="#00E6FC"/>
<rect x="1113.5" y="115.5" width="79" height="79" stroke="#00E6FC"/>
<rect x="7.5" y="194.5" width="79" height="79" stroke="#00E6FC"/>
<rect x="86.5" y="194.5" width="79" height="79" stroke="#00E6FC"/>
<rect x="165.5" y="194.5" width="79" height="79" stroke="#00E6FC"/>
<rect x="244.5" y="194.5" width="79" height="79" stroke="#00E6FC"/>
<rect x="323.5" y="194.5" width="79" height="79" stroke="#00E6FC"/>
<rect x="402.5" y="194.5" width="79" height="79" stroke="#00E6FC"/>
<rect x="481.5" y="194.5" width="79" height="79" stroke="#00E6FC"/>
<rect x="560.5" y="194.5" width="79" height="79" stroke="#00E6FC"/>
<rect x="639.5" y="194.5" width="79" height="79" stroke="#00E6FC"/>
<rect x="718.5" y="194.5" width="79" height="79" stroke="#00E6FC"/>
<rect x="797.5" y="194.5" width="79" height="79" stroke="#00E6FC"/>
<rect x="876.5" y="194.5" width="79" height="79" stroke="#00E6FC"/>
<rect x="955.5" y="194.5" width="79" height="79" stroke="#00E6FC"/>
<rect x="1034.5" y="194.5" width="79" height="79" stroke="#00E6FC"/>
<rect x="1113.5" y="194.5" width="79" height="79" fill="#00E6FC" fill-opacity="0.24" stroke="#00E6FC"/>
<rect x="7.5" y="273.5" width="79" height="79" stroke="#00E6FC"/>
<rect x="86.5" y="273.5" width="79" height="79" stroke="#00E6FC"/>
<rect x="165.5" y="273.5" width="79" height="79" stroke="#00E6FC"/>
<rect x="244.5" y="273.5" width="79" height="79" fill="#00E6FC" fill-opacity="0.24" stroke="#00E6FC"/>
<rect x="323.5" y="273.5" width="79" height="79" stroke="#00E6FC"/>
<rect x="402.5" y="273.5" width="79" height="79" stroke="#00E6FC"/>
<rect x="481.5" y="273.5" width="79" height="79" stroke="#00E6FC"/>
<rect x="560.5" y="273.5" width="79" height="79" stroke="#00E6FC"/>
<rect x="639.5" y="273.5" width="79" height="79" stroke="#00E6FC"/>
<rect x="718.5" y="273.5" width="79" height="79" fill="#00E6FC" fill-opacity="0.24" stroke="#00E6FC"/>
<rect x="797.5" y="273.5" width="79" height="79" stroke="#00E6FC"/>
<rect x="876.5" y="273.5" width="79" height="79" stroke="#00E6FC"/>
<rect x="955.5" y="273.5" width="79" height="79" stroke="#00E6FC"/>
<rect x="1034.5" y="273.5" width="79" height="79" stroke="#00E6FC"/>
<rect x="1113.5" y="273.5" width="79" height="79" stroke="#00E6FC"/>
<rect x="7.5" y="352.5" width="79" height="79" stroke="#00E6FC"/>
<rect x="86.5" y="352.5" width="79" height="79" stroke="#00E6FC"/>
<rect x="165.5" y="352.5" width="79" height="79" stroke="#00E6FC"/>
<rect x="244.5" y="352.5" width="79" height="79" stroke="#00E6FC"/>
<rect x="323.5" y="352.5" width="79" height="79" stroke="#00E6FC"/>
<rect x="402.5" y="352.5" width="79" height="79" stroke="#00E6FC"/>
<rect x="481.5" y="352.5" width="79" height="79" stroke="#00E6FC"/>
<rect x="560.5" y="352.5" width="79" height="79" stroke="#00E6FC"/>
<rect x="639.5" y="352.5" width="79" height="79" stroke="#00E6FC"/>
<rect x="718.5" y="352.5" width="79" height="79" stroke="#00E6FC"/>
<rect x="797.5" y="352.5" width="79" height="79" stroke="#00E6FC"/>
<rect x="876.5" y="352.5" width="79" height="79" stroke="#00E6FC"/>
<rect x="955.5" y="352.5" width="79" height="79" stroke="#00E6FC"/>
<rect x="1034.5" y="352.5" width="79" height="79" fill="#00E6FC" fill-opacity="0.24" stroke="#00E6FC"/>
<rect x="1113.5" y="352.5" width="79" height="79" stroke="#00E6FC"/>
<rect x="7.5" y="431.5" width="79" height="79" stroke="#00E6FC"/>
<rect x="86.5" y="431.5" width="79" height="79" stroke="#00E6FC"/>
<rect x="165.5" y="431.5" width="79" height="79" stroke="#00E6FC"/>
<rect x="244.5" y="431.5" width="79" height="79" fill="#00E6FC" fill-opacity="0.24" stroke="#00E6FC"/>
<rect x="323.5" y="431.5" width="79" height="79" stroke="#00E6FC"/>
<rect x="402.5" y="431.5" width="79" height="79" stroke="#00E6FC"/>
<rect x="481.5" y="431.5" width="79" height="79" stroke="#00E6FC"/>
<rect x="560.5" y="431.5" width="79" height="79" stroke="#00E6FC"/>
<rect x="639.5" y="431.5" width="79" height="79" stroke="#00E6FC"/>
<rect x="718.5" y="431.5" width="79" height="79" stroke="#00E6FC"/>
<rect x="797.5" y="431.5" width="79" height="79" fill="#00E6FC" fill-opacity="0.24" stroke="#00E6FC"/>
<rect x="876.5" y="431.5" width="79" height="79" stroke="#00E6FC"/>
<rect x="955.5" y="431.5" width="79" height="79" stroke="#00E6FC"/>
<rect x="1034.5" y="431.5" width="79" height="79" stroke="#00E6FC"/>
<rect x="1113.5" y="431.5" width="79" height="79" stroke="#00E6FC"/>
<rect x="7.5" y="510.5" width="79" height="79" stroke="#00E6FC"/>
<rect x="86.5" y="510.5" width="79" height="79" stroke="#00E6FC"/>
<rect x="165.5" y="510.5" width="79" height="79" fill="#00E6FC" fill-opacity="0.24" stroke="#00E6FC"/>
<rect x="244.5" y="510.5" width="79" height="79" stroke="#00E6FC"/>
<rect x="323.5" y="510.5" width="79" height="79" stroke="#00E6FC"/>
<rect x="402.5" y="510.5" width="79" height="79" stroke="#00E6FC"/>
<rect x="481.5" y="510.5" width="79" height="79" stroke="#00E6FC"/>
<rect x="560.5" y="510.5" width="79" height="79" stroke="#00E6FC"/>
<rect x="639.5" y="510.5" width="79" height="79" stroke="#00E6FC"/>
<rect x="718.5" y="510.5" width="79" height="79" stroke="#00E6FC"/>
<rect x="797.5" y="510.5" width="79" height="79" stroke="#00E6FC"/>
<rect x="876.5" y="510.5" width="79" height="79" fill="#00E6FC" fill-opacity="0.24" stroke="#00E6FC"/>
<rect x="955.5" y="510.5" width="79" height="79" stroke="#00E6FC"/>
<rect x="1034.5" y="510.5" width="79" height="79" stroke="#00E6FC"/>
<rect x="1113.5" y="510.5" width="79" height="79" fill="#00E6FC" fill-opacity="0.24" stroke="#00E6FC"/>
<rect x="7.5" y="589.5" width="79" height="79" stroke="#00E6FC"/>
<rect x="86.5" y="589.5" width="79" height="79" fill="#00E6FC" fill-opacity="0.24" stroke="#00E6FC"/>
<rect x="165.5" y="589.5" width="79" height="79" stroke="#00E6FC"/>
<rect x="244.5" y="589.5" width="79" height="79" stroke="#00E6FC"/>
<rect x="323.5" y="589.5" width="79" height="79" stroke="#00E6FC"/>
<rect x="402.5" y="589.5" width="79" height="79" stroke="#00E6FC"/>
<rect x="481.5" y="589.5" width="79" height="79" stroke="#00E6FC"/>
<rect x="560.5" y="589.5" width="79" height="79" stroke="#00E6FC"/>
<rect x="639.5" y="589.5" width="79" height="79" stroke="#00E6FC"/>
<rect x="718.5" y="589.5" width="79" height="79" stroke="#00E6FC"/>
<rect x="797.5" y="589.5" width="79" height="79" stroke="#00E6FC"/>
<rect x="876.5" y="589.5" width="79" height="79" stroke="#00E6FC"/>
<rect x="955.5" y="589.5" width="79" height="79" stroke="#00E6FC"/>
<rect x="1034.5" y="589.5" width="79" height="79" stroke="#00E6FC"/>
<rect x="1113.5" y="589.5" width="79" height="79" stroke="#00E6FC"/>
</g>
</g>
<g filter="url(#filter0_f_265_6917)">
<path d="M87 431.003H126.004V432.003H87V472.005H86V432.003H46V431.003H86V392.001H87V431.003Z" fill="#2B75CC"/>
</g>
<path d="M87 431.003H126.004V432.003H87V472.005H86V432.003H46V431.003H86V392.001H87V431.003Z" fill="url(#paint1_radial_265_6917)"/>
<g filter="url(#filter1_f_265_6917)">
<path d="M1114 194.003H1153V195.003H1114V235.005H1113V195.003H1073V194.003H1113V155.001H1114V194.003Z" fill="#2B75CC"/>
</g>
<path d="M1114 194.003H1153V195.003H1114V235.005H1113V195.003H1073V194.003H1113V155.001H1114V194.003Z" fill="url(#paint2_radial_265_6917)"/>
<defs>
<filter id="filter0_f_265_6917" x="40.6664" y="386.667" width="90.6711" height="90.6711" filterUnits="userSpaceOnUse" color-interpolation-filters="sRGB">
<feFlood flood-opacity="0" result="BackgroundImageFix"/>
<feBlend mode="normal" in="SourceGraphic" in2="BackgroundImageFix" result="shape"/>
<feGaussianBlur stdDeviation="2.6668" result="effect1_foregroundBlur_265_6917"/>
</filter>
<filter id="filter1_f_265_6917" x="1067.67" y="149.667" width="90.6711" height="90.6711" filterUnits="userSpaceOnUse" color-interpolation-filters="sRGB">
<feFlood flood-opacity="0" result="BackgroundImageFix"/>
<feBlend mode="normal" in="SourceGraphic" in2="BackgroundImageFix" result="shape"/>
<feGaussianBlur stdDeviation="2.6668" result="effect1_foregroundBlur_265_6917"/>
</filter>
<radialGradient id="paint0_radial_265_6917" cx="0" cy="0" r="1" gradientUnits="userSpaceOnUse" gradientTransform="translate(600 387) rotate(90) scale(369.35 675.64)">
<stop stop-color="white" stop-opacity="0.24"/>
<stop offset="1" stop-color="white" stop-opacity="0"/>
</radialGradient>
<radialGradient id="paint1_radial_265_6917" cx="0" cy="0" r="1" gradientUnits="userSpaceOnUse" gradientTransform="translate(86.002 432.003) rotate(90) scale(40.002)">
<stop stop-color="#00E6FC"/>
<stop offset="1" stop-color="#2B75CC" stop-opacity="0"/>
</radialGradient>
<radialGradient id="paint2_radial_265_6917" cx="0" cy="0" r="1" gradientUnits="userSpaceOnUse" gradientTransform="translate(1113 195.003) rotate(90) scale(40.002)">
<stop stop-color="#00E6FC"/>
<stop offset="1" stop-color="#2B75CC" stop-opacity="0"/>
</radialGradient>
<clipPath id="clip0_265_6917">
<rect width="1200" height="656" fill="white" transform="translate(0 24)"/>
</clipPath>
</defs>
</svg>
